<svg width="40" height="40" viewBox="0 0 40 40" fill="none" xmlns="http://www.w3.org/2000/svg">
<path fill-rule="evenodd" clip-rule="evenodd" d="M-2.32918e-06 20C-3.14964e-06 31.0461 8.95468 40 20 40C31.0461 40 40 31.0461 40 20C40 8.95469 31.0461 2.89337e-06 20 1.75676e-06C8.95469 6.20233e-07 -1.50878e-06 8.95469 -2.32918e-06 20ZM16.5297 26.9187C16.2203 27.2367 16.2242 27.7492 16.5391 28.0617C16.8539 28.3742 17.3609 28.3703 17.6703 28.0523L25.032 20.4641C25.3406 20.1469 25.3375 19.6375 25.0258 19.3242L17.6641 11.9414C17.3516 11.6273 16.8445 11.6289 16.5328 11.9453C16.2211 12.2617 16.2227 12.7734 16.5359 13.0875L23.3344 19.9055L16.5297 26.9187Z" fill="#0FC678"/>
</svg>
