<svg width="24" height="24" viewBox="0 0 24 24" fill="none" xmlns="http://www.w3.org/2000/svg">
<path d="M6.61054 9.86395C7.41731 11.3264 8.34714 12.7301 9.55436 14.01C10.7655 15.2978 12.2716 16.4697 14.2211 17.4709C14.3657 17.5416 14.5024 17.5416 14.6255 17.4925C14.8111 17.4218 15.0005 17.2667 15.1861 17.0802C15.3307 16.935 15.5104 16.7033 15.6979 16.4501C16.448 15.4587 17.3759 14.2279 18.6867 14.8443C18.716 14.858 18.7375 14.8737 18.7668 14.8855L23.1385 17.412C23.1522 17.4199 23.1678 17.4336 23.1796 17.4415C23.7558 17.84 23.9941 18.4544 24 19.1513C24 19.86 23.7402 20.657 23.3593 21.3303C22.8553 22.2196 22.113 22.8085 21.2574 23.1972C20.4428 23.5741 19.5364 23.7763 18.6652 23.9059C17.2978 24.1081 16.0163 23.9785 14.7056 23.5741C13.4241 23.1756 12.1329 22.518 10.7225 21.6425L10.619 21.5757C9.9724 21.1694 9.27307 20.7355 8.58741 20.2231C6.07921 18.319 3.52216 15.5687 1.85588 12.5416C0.459179 10.0014 -0.30266 7.25893 0.113422 4.64606C0.343927 3.21301 0.955351 1.90952 2.02193 1.04969C2.95176 0.295865 4.20391 -0.116383 5.82526 0.0288853C6.01084 0.0426269 6.17688 0.150597 6.26478 0.31157L9.06796 5.07402C9.47818 5.60798 9.52897 6.13801 9.30432 6.66804C9.11875 7.10188 8.74369 7.50235 8.23189 7.87534C8.08147 8.0049 7.90176 8.13643 7.71228 8.27385C7.08522 8.73125 6.37222 9.25931 6.6164 9.87965L6.61054 9.86395Z" fill="white"/>
</svg>
