<svg width="26" height="24" viewBox="0 0 26 24" fill="none" xmlns="http://www.w3.org/2000/svg">
<path d="M13.8879 0.401571L17.131 7.93292L25.3606 8.66433C25.4893 8.6757 25.6117 8.72431 25.7129 8.80413C25.814 8.88395 25.8893 8.99148 25.9295 9.11339C25.9697 9.2353 25.973 9.36625 25.939 9.49C25.9049 9.61375 25.8351 9.72488 25.7381 9.80961L19.5097 15.2041L21.35 23.1943C21.3798 23.3219 21.3704 23.4553 21.3231 23.5775C21.2759 23.6997 21.1929 23.805 21.0848 23.88C20.9767 23.9549 20.8485 23.996 20.7167 23.9979C20.5849 23.9999 20.4556 23.9626 20.3453 23.8909L13.2793 19.6991L6.19269 23.9073C6.08167 23.9731 5.95364 24.0051 5.82448 23.9993C5.69531 23.9935 5.57071 23.9502 5.46612 23.8747C5.36154 23.7992 5.28158 23.6949 5.23617 23.5747C5.19075 23.4544 5.18189 23.3236 5.21067 23.1984L7.05092 15.2082L0.828732 9.80961C0.730414 9.72401 0.659905 9.61134 0.626145 9.4859C0.592385 9.36045 0.596895 9.22788 0.639104 9.10498C0.681312 8.98209 0.759317 8.8744 0.863229 8.79559C0.967141 8.71678 1.09228 8.67038 1.22278 8.66228L9.42138 7.93292L12.6707 0.401571C12.7211 0.282569 12.8057 0.180982 12.914 0.109544C13.0222 0.0381074 13.1493 0 13.2793 0C13.4093 0 13.5364 0.0381074 13.6447 0.109544C13.7529 0.180982 13.8375 0.282569 13.8879 0.401571Z" fill="#0FC678"/>
</svg>
