<?xml version="1.0" encoding="UTF-8" standalone="no"?>
<svg
   xmlns:dc="http://purl.org/dc/elements/1.1/"
   xmlns:cc="http://creativecommons.org/ns#"
   xmlns:rdf="http://www.w3.org/1999/02/22-rdf-syntax-ns#"
   xmlns:svg="http://www.w3.org/2000/svg"
   xmlns="http://www.w3.org/2000/svg"
   xmlns:sodipodi="http://sodipodi.sourceforge.net/DTD/sodipodi-0.dtd"
   xmlns:inkscape="http://www.inkscape.org/namespaces/inkscape"
   width="241"
   height="241"
   viewBox="0 0 63.764584 63.764583"
   version="1.1"
   id="svg892"
   inkscape:version="1.0.2-2 (e86c870879, 2021-01-15)"
   sodipodi:docname="favicon.svg">
  <defs
     id="defs886" />
  <sodipodi:namedview
     id="base"
     pagecolor="#ffffff"
     bordercolor="#666666"
     borderopacity="1.0"
     inkscape:pageopacity="0.0"
     inkscape:pageshadow="2"
     inkscape:zoom="3.959798"
     inkscape:cx="188.60542"
     inkscape:cy="116.88737"
     inkscape:document-units="mm"
     inkscape:current-layer="layer1"
     inkscape:document-rotation="0"
     showgrid="false"
     inkscape:snap-nodes="true"
     inkscape:snap-global="true"
     inkscape:window-width="2400"
     inkscape:window-height="1271"
     inkscape:window-x="2391"
     inkscape:window-y="121"
     inkscape:window-maximized="1"
     units="px"
     inkscape:snap-bbox="true"
     inkscape:bbox-paths="true"
     inkscape:bbox-nodes="true"
     inkscape:snap-bbox-edge-midpoints="true"
     inkscape:snap-bbox-midpoints="true"
     inkscape:snap-page="true"
     inkscape:snap-object-midpoints="true"
     inkscape:snap-center="true"
     inkscape:snap-text-baseline="true"
     inkscape:object-paths="true"
     inkscape:snap-intersection-paths="true"
     inkscape:snap-smooth-nodes="true"
     inkscape:snap-midpoints="true" />
  <metadata
     id="metadata889">
    <rdf:RDF>
      <cc:Work
         rdf:about="">
        <dc:format>image/svg+xml</dc:format>
        <dc:type
           rdf:resource="http://purl.org/dc/dcmitype/StillImage" />
        <dc:title></dc:title>
      </cc:Work>
    </rdf:RDF>
  </metadata>
  <g
     inkscape:label="Layer 1"
     inkscape:groupmode="layer"
     id="layer1"
     transform="translate(-19.24323,-80.848111)">
    <g
       id="g1877"
       transform="translate(-914.68604,-358.42663)">
      <rect
         style="font-variation-settings:'wght' 400;fill:#ffffff;fill-opacity:1;stroke:none;stroke-width:0.157956;stroke-linecap:round;stroke-linejoin:round"
         id="rect1632"
         width="63.764584"
         height="63.764584"
         x="933.92926"
         y="439.27475"
         rx="2.0000012"
         ry="2.0000012" />
      <path
         id="rect1570"
         style="font-variation-settings:'wght' 400;fill:#e9faf3;fill-opacity:1;stroke:none;stroke-width:0.202839;stroke-linecap:round;stroke-linejoin:round"
         d="m 974.53712,439.39209 c 0.73158,2.49983 2.52867,9.13443 7.56129,27.75999 8.74463,32.36368 8.09419,29.73271 7.59541,30.71814 -0.13634,0.26955 -0.40048,0.63441 -0.58653,0.81054 -0.33828,0.32032 -0.33818,0.32004 -12.099,3.53556 -1.06662,0.29161 -2.0354,0.55416 -3.02566,0.823 h 21.1491 c 1.41944,0 2.56212,-1.14817 2.56212,-2.57442 v -58.49839 c 0,-1.42626 -1.14268,-2.57442 -2.56212,-2.57442 z"
         sodipodi:nodetypes="ccccscssssc" />
      <path
         id="path1099-9-6-9-6"
         style="fill:#e12301;fill-opacity:1;stroke-width:0.0938285"
         d="m 964.62091,440.47278 c -1.56677,0.42053 -3.64695,0.98341 -6.42076,1.73373 -10.64701,2.88078 -11.10646,3.0122 -11.36689,3.25638 -0.3788,0.35513 -0.70458,0.91241 -0.81989,1.40196 -0.0978,0.41527 -0.0978,0.41512 7.18072,27.40886 8.09282,30.0133 7.38727,27.6037 8.24816,28.15771 0.42406,0.27289 0.83291,0.40452 1.30694,0.4209 0.13525,0.004 5.17594,-1.33301 11.20119,-2.97247 10.95502,-2.98084 10.95499,-2.98065 11.27009,-3.27759 0.1733,-0.16329 0.41934,-0.50141 0.5464,-0.75129 0.46458,-0.91351 1.07027,1.5257 -7.07516,-28.4761 -7.09049,-26.11602 -7.33352,-26.98983 -7.57978,-27.2525 -0.35513,-0.37883 -0.91198,-0.70468 -1.40154,-0.82002 -0.31146,-0.0734 -0.38928,-0.0914 -5.08947,1.1705 z m -0.0876,1.61603 c 4.34119,-1.16333 4.41679,-1.13678 4.71817,-1.03026 0.22102,0.0782 0.51493,0.27414 0.6534,0.43576 0.24589,0.28702 0.41586,0.9 7.34401,26.51619 6.92817,25.61622 7.09045,26.23114 7.02298,26.60313 -0.0381,0.20938 -0.19364,0.52753 -0.34507,0.70648 l -1.2e-4,-4.3e-4 c -0.27538,0.32543 -0.27531,0.32569 -10.38445,3.07784 -6.14229,1.67232 -10.22495,2.74899 -10.40456,2.74306 -0.47741,-0.0147 -1.00105,-0.3873 -1.25656,-0.89411 -0.16326,-0.32425 -2.05834,-7.25764 -7.21684,-26.40558 -6.82541,-25.33519 -6.99355,-25.97457 -6.92616,-26.34608 0.0382,-0.20941 0.19316,-0.5274 0.34461,-0.70638 0.27546,-0.3253 0.27579,-0.32512 10.52133,-3.0985 2.56137,-0.69341 4.48222,-1.21331 5.92928,-1.60106 z m -5.51037,3.15924 c -0.14395,0.039 -0.2763,0.121 -0.4207,0.25331 -0.44903,0.41121 -0.43492,0.53586 0.41036,3.66077 0.76964,2.84586 0.76962,2.84579 0.36492,3.00581 -0.24963,0.0987 -0.45876,0.25473 -0.54591,0.40635 -0.13946,0.24368 -0.13194,0.28111 0.93619,4.22869 1.07744,3.9827 1.07766,3.98256 0.78051,4.063 -0.45289,0.12223 -0.84002,0.47148 -0.95292,0.85929 -0.10093,0.34686 -0.0715,0.45999 4.28518,16.56163 4.35659,16.10162 4.3881,16.21426 4.65025,16.46289 0.38221,0.36263 0.80339,0.38447 1.86753,0.0967 0.9082,-0.246 0.9081,-0.24597 1.1425,0.61882 0.2617,0.96676 0.47121,1.27798 0.93559,1.38811 l -1.1e-4,-4.5e-4 c 0.36772,0.0875 0.64744,0.0133 0.93156,-0.24695 0.36293,-0.33239 0.39052,-0.70058 0.1255,-1.67974 -0.23433,-0.86458 -0.23432,-0.86453 0.67449,-1.1107 1.06413,-0.28781 1.41702,-0.51909 1.56424,-1.02493 0.10092,-0.34687 0.0714,-0.46002 -4.28519,-16.56164 -4.3566,-16.10162 -4.3881,-16.21427 -4.65024,-16.46291 -0.29301,-0.27819 -0.80322,-0.38412 -1.25612,-0.26187 -0.29722,0.0804 -0.29722,0.0804 -1.37485,-3.90236 -1.06804,-3.9476 -1.07948,-3.98406 -1.32343,-4.12401 -0.15165,-0.087 -0.41144,-0.11556 -0.67674,-0.0751 -0.43079,0.066 -0.43089,0.0657 -1.20052,-2.78006 -0.84529,-3.12493 -0.89613,-3.23924 -1.49129,-3.36795 -0.19137,-0.0412 -0.34688,-0.0457 -0.49082,-0.007 z m 5.84135,15.76278 c 1.07393,-0.27978 1.10281,-0.24384 1.21894,-0.099 0.12298,0.15347 1.00869,3.3529 4.31737,15.59328 4.20763,15.56715 4.22867,15.64998 4.02642,15.9171 -0.0362,0.0478 -1.13749,0.37682 -2.44719,0.73219 -1.30976,0.35538 -2.42673,0.62685 -2.48211,0.60376 -0.30914,-0.12856 -0.33279,-0.21038 -4.53819,-15.77815 -3.3067,-12.2409 -4.15308,-15.45127 -4.12409,-15.64597 0.0364,-0.24462 0.0368,-0.24457 2.56501,-0.92998 0.6321,-0.17115 1.10587,-0.29987 1.46385,-0.39313 z" />
      <path
         id="rect1570-6"
         style="font-variation-settings:'wght' 400;fill:#e9faf3;fill-opacity:1;stroke:none;stroke-width:0.203027;stroke-linecap:round;stroke-linejoin:round"
         d="m 936.49191,439.27474 c -1.41944,0 -2.56264,1.15029 -2.56264,2.57917 v 58.60625 c 0,1.42889 1.1432,2.57916 2.56264,2.57916 h 21.32376 c -0.85682,-2.70791 -2.71375,-9.71104 -7.74578,-28.49732 -7.81417,-29.17251 -7.81429,-29.17268 -7.70909,-29.62148 0.12379,-0.52906 0.47389,-1.13103 0.88057,-1.51483 0.27954,-0.2639 0.77261,-0.40589 12.20287,-3.51918 0.97226,-0.26475 1.43029,-0.38851 2.25051,-0.61177 z"
         sodipodi:nodetypes="ssssccccccs" />
    </g>
  </g>
</svg>
