<?xml version="1.0" standalone="no"?>
<!DOCTYPE svg PUBLIC "-//W3C//DTD SVG 20010904//EN"
 "http://www.w3.org/TR/2001/REC-SVG-20010904/DTD/svg10.dtd">
<svg version="1.0" xmlns="http://www.w3.org/2000/svg"
 width="700.000000pt" height="700.000000pt" viewBox="0 0 700.000000 700.000000"
 preserveAspectRatio="xMidYMid meet">
<metadata>
Created by potrace 1.14, written by Peter Selinger 2001-2017
</metadata>
<g transform="translate(0.000000,700.000000) scale(0.100000,-0.100000)"
fill="#000000" stroke="none">
<path d="M3795 6979 c-263 -64 -2051 -549 -2285 -619 -90 -27 -138 -71 -169
-153 l-20 -55 26 -113 c31 -139 235 -905 758 -2844 822 -3048 820 -3042 879
-3101 29 -29 128 -74 162 -74 46 0 2138 563 2381 641 100 32 128 55 171 143
40 79 55 16 -644 2596 -775 2856 -934 3431 -960 3481 -29 56 -137 120 -198
118 -12 0 -57 -9 -101 -20z m125 -199 c16 -12 34 -30 40 -39 22 -42 155 -526
854 -3111 483 -1789 665 -2467 696 -2602 l22 -97 -22 -46 c-26 -55 -41 -63
-195 -108 -282 -84 -1943 -533 -2063 -558 -72 -15 -107 -4 -152 47 -34 39 -41
61 -165 509 -165 597 -953 3518 -1235 4575 -197 739 -198 744 -160 806 33 52
33 52 1205 369 1166 315 1108 303 1175 255z"/>
<path d="M2750 6343 c-8 -3 -27 -17 -42 -31 -42 -39 -37 -82 42 -383 39 -146
70 -280 70 -297 0 -22 -7 -35 -22 -43 -45 -23 -68 -52 -68 -84 0 -17 30 -141
66 -276 114 -427 144 -543 144 -566 0 -16 -11 -28 -39 -43 -22 -10 -49 -32
-61 -47 -41 -52 -54 1 415 -1733 409 -1513 503 -1853 527 -1906 25 -54 92 -66
204 -38 108 27 114 23 149 -80 17 -48 41 -99 54 -112 50 -51 160 -17 176 55 4
17 -3 66 -15 117 -20 84 -20 89 -3 105 10 9 56 28 103 42 84 26 128 56 143 99
12 33 -19 153 -419 1633 -432 1597 -510 1880 -541 1957 -19 49 -55 68 -128 68
-51 0 -56 2 -66 28 -13 33 -67 221 -155 542 -65 239 -85 297 -108 312 -6 4
-32 8 -58 8 -42 0 -49 3 -63 29 -8 16 -46 143 -85 281 -71 257 -96 326 -121
347 -17 14 -79 24 -99 16z m785 -1737 c19 -45 114 -384 314 -1121 472 -1742
601 -2231 601 -2284 0 -38 -3 -40 -180 -89 -274 -78 -358 -96 -375 -82 -22 18
-57 137 -225 750 -444 1626 -722 2674 -713 2695 2 7 16 18 31 24 55 21 491
140 520 141 7 0 19 -15 27 -34z"/>
</g>
</svg>
